<?xml version="1.0" standalone="no"?>
<!DOCTYPE svg PUBLIC "-//W3C//DTD SVG 1.1//EN" "http://www.w3.org/Graphics/SVG/1.1/DTD/svg11.dtd">
<svg version="1.1" xmlns="http://www.w3.org/2000/svg" viewBox="0 0 831.9999999999998 1030" width="831.9999999999998" height="1030"><!-- svg-source:excalidraw --><metadata></metadata><defs><style class="style-fonts">
      </style></defs><g stroke-linecap="round"><g transform="translate(31 33) rotate(0 388.9999999999999 137)"><path d="M0 0 C129.67 45.67, 648.33 228.33, 778 274 M0 0 C129.67 45.67, 648.33 228.33, 778 274" stroke="#e03131" stroke-width="4" fill="none"></path></g></g><mask></mask><g stroke-linecap="round"><g transform="translate(30 307) rotate(0 385.9999999999999 -136)"><path d="M0 0 C128.67 -45.33, 643.33 -226.67, 772 -272 M0 0 C128.67 -45.33, 643.33 -226.67, 772 -272" stroke="#e03131" stroke-width="4" fill="none"></path></g></g><mask></mask><g stroke-linecap="round" transform="translate(10 10) rotate(0 405.9999999999999 505)"><path d="M32 0 C322.62 0, 613.25 0, 780 0 M32 0 C288.62 0, 545.25 0, 780 0 M780 0 C801.33 0, 812 10.67, 812 32 M780 0 C801.33 0, 812 10.67, 812 32 M812 32 C812 266.3, 812 500.6, 812 978 M812 32 C812 348.1, 812 664.2, 812 978 M812 978 C812 999.33, 801.33 1010, 780 1010 M812 978 C812 999.33, 801.33 1010, 780 1010 M780 1010 C539.19 1010, 298.37 1010, 32 1010 M780 1010 C625.53 1010, 471.06 1010, 32 1010 M32 1010 C10.67 1010, 0 999.33, 0 978 M32 1010 C10.67 1010, 0 999.33, 0 978 M0 978 C0 617.93, 0 257.85, 0 32 M0 978 C0 642.17, 0 306.33, 0 32 M0 32 C0 10.67, 10.67 0, 32 0 M0 32 C0 10.67, 10.67 0, 32 0" stroke="transparent" stroke-width="4" fill="none"></path></g></svg>