<?xml version="1.0" encoding="UTF-8" standalone="yes"?>
<!-- Created with qrencode 4.1.1 (https://fukuchi.org/works/qrencode/index.html) -->
<svg width="4.34cm" height="4.34cm" viewBox="0 0 41 41" preserveAspectRatio="none" version="1.1" xmlns="http://www.w3.org/2000/svg">
	<g id="QRcode">
		<rect x="0" y="0" width="41" height="41" fill="#ffffff"/>
		<path style="stroke:#000000" transform="translate(4,4.5)" d="M0,0h1M1,0h1M2,0h1M3,0h1M4,0h1M5,0h1M6,0h1M8,0h1M9,0h1M10,0h1M11,0h1M13,0h1M14,0h1M15,0h1M18,0h1M21,0h1M26,0h1M27,0h1M28,0h1M29,0h1M30,0h1M31,0h1M32,0h1M0,1h1M6,1h1M8,1h1M11,1h1M15,1h1M17,1h1M22,1h1M26,1h1M32,1h1M0,2h1M2,2h1M3,2h1M4,2h1M6,2h1M9,2h1M13,2h1M17,2h1M20,2h1M21,2h1M22,2h1M24,2h1M26,2h1M28,2h1M29,2h1M30,2h1M32,2h1M0,3h1M2,3h1M3,3h1M4,3h1M6,3h1M11,3h1M12,3h1M15,3h1M16,3h1M17,3h1M18,3h1M20,3h1M21,3h1M22,3h1M24,3h1M26,3h1M28,3h1M29,3h1M30,3h1M32,3h1M0,4h1M2,4h1M3,4h1M4,4h1M6,4h1M8,4h1M11,4h1M12,4h1M15,4h1M16,4h1M17,4h1M22,4h1M26,4h1M28,4h1M29,4h1M30,4h1M32,4h1M0,5h1M6,5h1M8,5h1M9,5h1M10,5h1M12,5h1M13,5h1M14,5h1M16,5h1M17,5h1M20,5h1M22,5h1M24,5h1M26,5h1M32,5h1M0,6h1M1,6h1M2,6h1M3,6h1M4,6h1M5,6h1M6,6h1M8,6h1M10,6h1M12,6h1M14,6h1M16,6h1M18,6h1M20,6h1M22,6h1M24,6h1M26,6h1M27,6h1M28,6h1M29,6h1M30,6h1M31,6h1M32,6h1M8,7h1M9,7h1M13,7h1M18,7h1M19,7h1M20,7h1M22,7h1M23,7h1M24,7h1M0,8h1M1,8h1M2,8h1M5,8h1M6,8h1M8,8h1M9,8h1M11,8h1M12,8h1M13,8h1M15,8h1M16,8h1M20,8h1M24,8h1M25,8h1M26,8h1M27,8h1M28,8h1M31,8h1M32,8h1M5,9h1M7,9h1M8,9h1M12,9h1M16,9h1M17,9h1M19,9h1M20,9h1M22,9h1M23,9h1M24,9h1M26,9h1M27,9h1M31,9h1M32,9h1M1,10h1M2,10h1M3,10h1M6,10h1M7,10h1M9,10h1M10,10h1M12,10h1M13,10h1M14,10h1M16,10h1M17,10h1M18,10h1M19,10h1M21,10h1M23,10h1M24,10h1M25,10h1M26,10h1M27,10h1M32,10h1M1,11h1M4,11h1M10,11h1M11,11h1M12,11h1M14,11h1M15,11h1M16,11h1M19,11h1M20,11h1M22,11h1M24,11h1M25,11h1M26,11h1M27,11h1M28,11h1M0,12h1M2,12h1M4,12h1M5,12h1M6,12h1M7,12h1M8,12h1M9,12h1M10,12h1M13,12h1M14,12h1M19,12h1M23,12h1M24,12h1M26,12h1M27,12h1M31,12h1M32,12h1M0,13h1M2,13h1M3,13h1M4,13h1M8,13h1M10,13h1M13,13h1M14,13h1M17,13h1M19,13h1M20,13h1M21,13h1M24,13h1M26,13h1M30,13h1M31,13h1M32,13h1M1,14h1M2,14h1M6,14h1M7,14h1M9,14h1M10,14h1M11,14h1M15,14h1M19,14h1M23,14h1M27,14h1M29,14h1M32,14h1M0,15h1M2,15h1M4,15h1M13,15h1M18,15h1M20,15h1M24,15h1M25,15h1M26,15h1M2,16h1M5,16h1M6,16h1M7,16h1M10,16h1M11,16h1M12,16h1M13,16h1M15,16h1M16,16h1M20,16h1M24,16h1M26,16h1M27,16h1M29,16h1M32,16h1M0,17h1M4,17h1M7,17h1M8,17h1M9,17h1M12,17h1M16,17h1M18,17h1M19,17h1M23,17h1M26,17h1M27,17h1M29,17h1M30,17h1M31,17h1M32,17h1M1,18h1M2,18h1M3,18h1M6,18h1M7,18h1M8,18h1M9,18h1M12,18h1M13,18h1M14,18h1M16,18h1M17,18h1M18,18h1M19,18h1M20,18h1M21,18h1M23,18h1M24,18h1M28,18h1M32,18h1M1,19h1M4,19h1M7,19h1M9,19h1M10,19h1M11,19h1M12,19h1M14,19h1M15,19h1M16,19h1M19,19h1M24,19h1M25,19h1M27,19h1M0,20h1M3,20h1M4,20h1M5,20h1M6,20h1M7,20h1M13,20h1M14,20h1M16,20h1M18,20h1M19,20h1M22,20h1M23,20h1M25,20h1M26,20h1M29,20h1M32,20h1M2,21h1M4,21h1M10,21h1M13,21h1M14,21h1M19,21h1M21,21h1M23,21h1M24,21h1M26,21h1M27,21h1M29,21h1M30,21h1M31,21h1M32,21h1M0,22h1M1,22h1M2,22h1M3,22h1M5,22h1M6,22h1M7,22h1M8,22h1M9,22h1M10,22h1M11,22h1M15,22h1M16,22h1M17,22h1M18,22h1M19,22h1M23,22h1M27,22h1M28,22h1M32,22h1M2,23h1M3,23h1M4,23h1M5,23h1M7,23h1M9,23h1M13,23h1M16,23h1M20,23h1M22,23h1M23,23h1M25,23h1M26,23h1M28,23h1M29,23h1M0,24h1M1,24h1M2,24h1M4,24h1M6,24h1M7,24h1M11,24h1M12,24h1M13,24h1M15,24h1M16,24h1M18,24h1M20,24h1M23,24h1M24,24h1M25,24h1M26,24h1M27,24h1M28,24h1M29,24h1M31,24h1M8,25h1M9,25h1M10,25h1M12,25h1M15,25h1M16,25h1M18,25h1M19,25h1M22,25h1M23,25h1M24,25h1M28,25h1M29,25h1M32,25h1M0,26h1M1,26h1M2,26h1M3,26h1M4,26h1M5,26h1M6,26h1M10,26h1M12,26h1M13,26h1M14,26h1M16,26h1M19,26h1M21,26h1M22,26h1M24,26h1M26,26h1M28,26h1M32,26h1M0,27h1M6,27h1M8,27h1M9,27h1M10,27h1M11,27h1M12,27h1M14,27h1M16,27h1M18,27h1M19,27h1M20,27h1M23,27h1M24,27h1M28,27h1M29,27h1M0,28h1M2,28h1M3,28h1M4,28h1M6,28h1M10,28h1M13,28h1M14,28h1M15,28h1M16,28h1M18,28h1M20,28h1M23,28h1M24,28h1M25,28h1M26,28h1M27,28h1M28,28h1M29,28h1M31,28h1M32,28h1M0,29h1M2,29h1M3,29h1M4,29h1M6,29h1M9,29h1M13,29h1M14,29h1M16,29h1M18,29h1M19,29h1M20,29h1M21,29h1M23,29h1M25,29h1M28,29h1M30,29h1M31,29h1M32,29h1M0,30h1M2,30h1M3,30h1M4,30h1M6,30h1M8,30h1M10,30h1M11,30h1M15,30h1M16,30h1M19,30h1M21,30h1M22,30h1M24,30h1M26,30h1M28,30h1M30,30h1M31,30h1M32,30h1M0,31h1M6,31h1M8,31h1M9,31h1M10,31h1M13,31h1M18,31h1M19,31h1M22,31h1M23,31h1M24,31h1M29,31h1M0,32h1M1,32h1M2,32h1M3,32h1M4,32h1M5,32h1M6,32h1M8,32h1M10,32h1M11,32h1M12,32h1M13,32h1M15,32h1M16,32h1M17,32h1M18,32h1M19,32h1M20,32h1M24,32h1M25,32h1M28,32h1M32,32h1"/>
	</g>
</svg>
